
nColumns=19
nRows=62
DataType=double
version=3
OpenSimVersion=4.4-2022-10-11-798caa840
endheader
time	ground_force_calcn_r_vx	ground_force_calcn_r_vy	ground_force_calcn_r_vz	ground_force_calcn_r_px	ground_force_calcn_r_py	ground_force_calcn_r_pz	ground_force_calcn_r_mx	ground_force_calcn_r_my	ground_force_calcn_r_mz	ground_force_calcn_l_vx	ground_force_calcn_l_vy	ground_force_calcn_l_vz	ground_force_calcn_l_px	ground_force_calcn_l_py	ground_force_calcn_l_pz	ground_force_calcn_l_mx	ground_force_calcn_l_my	ground_force_calcn_l_mz
0.02	2.8871	30.5036	4.30928	0.104589	0	-0.168224	0.0264693	0.279661	0.0395081	0	0	0	0	0	0	0	0	0
0.03	0.14323	53.0009	5.18327	0.128322	0	-0.167462	0.000609136	0.225406	0.0220437	0	0	0	0	0	0	0	0	0
0.04	-3.7671	80.98399999999999	6.07878	0.140863	0	-0.166588	-0.009173219999999999	0.197203	0.0148024	0	0	0	0	0	0	0	0	0
0.05	-9.050739999999999	114.696	6.9403	0.14912	0	-0.165849	-0.0146551	0.185718	0.0112378	0	0	0	0	0	0	0	0	0
0.06	-15.8991	154.053	7.69114	0.155352	0	-0.165209	-0.0194481	0.188441	0.00940798	0	0	0	0	0	0	0	0	0
0.07000000000000001	-24.4617	198.521	8.23025	0.160543	0	-0.164622	-0.0253295	0.205564	0.00852223	0	0	0	0	0	0	0	0	0
0.08	-34.7437	247.132	8.435639999999999	0.165191	0	-0.164052	-0.0335103	0.238359	0.00813617	0	0	0	0	0	0	0	0	0
0.09	-46.4721	298.694	8.175940000000001	0.169542	0	-0.163465	-0.0448358	0.288176	0.007888050000000001	0	0	0	0	0	0	0	0	0
0.1	-59.1429	351.871	7.32135	0.173712	0	-0.162833	-0.0598388	0.356011	0.0074075	0	0	0	0	0	0	0	0	0
0.11	-72.1468	405.142	5.77647	0.177754	0	-0.162144	-0.0788394	0.442724	0.00631231	0	0	0	0	0	0	0	0	0
0.12	-84.8578	456.87	3.52596	0.181686	0	-0.161395	-0.102259	0.550559	0.00424901	0	0	0	0	0	0	0	0	0
0.13	-96.68980000000001	505.528	0.6556959999999999	0.185513	0	-0.160597	-0.130743	0.683571	0.000886627	0	0	0	0	0	0	0	0	0
0.14	-107.135	549.898	-2.66664	0.189225	0	-0.159759	-0.164511	0.844397	-0.00409476	0	0	0	0	0	0	0	0	0
0.15	-115.807	589.129	-6.24025	0.192815	0	-0.158892	-0.202656	1.03095	-0.0109202	0	0	0	0	0	0	0	0	0
0.16	-122.456	622.681	-9.85253	0.196274	0	-0.157997	-0.243363	1.23749	-0.0195805	0	0	0	0	0	0	0	0	0
0.17	-126.955	650.2140000000001	-13.2907	0.199602	0	-0.157079	-0.284381	1.45649	-0.0297712	0	0	0	0	0	0	0	0	0
0.18	-129.283	671.51	-16.3798	0.202804	0	-0.156131	-0.323106	1.67825	-0.0409368	0	0	0	0	0	0	0	0	0
0.19	-129.508	686.46	-19.0067	0.205895	0	-0.155145	-0.356951	1.89203	-0.0523863	0	0	0	0	0	0	0	0	0
0.2	-127.787	695.073	-21.1221	0.208897	0	-0.154106	-0.383809	2.08766	-0.06344039999999999	0	0	0	0	0	0	0	0	0
0.21	-124.352	697.492	-22.735	0.211841	0	-0.152998	-0.402285	2.25642	-0.0735489	0	0	0	0	0	0	0	0	0
0.22	-119.49	694.033	-23.8895	0.214761	0	-0.151808	-0.411731	2.39146	-0.0823171	0	0	0	0	0	0	0	0	0
0.23	-113.512	685.216	-24.6431	0.217687	0	-0.150521	-0.412097	2.48763	-0.0894649	0	0	0	0	0	0	0	0	0
0.24	-106.721	671.765	-25.0561	0.220642	0	-0.149128	-0.403683	2.54101	-0.094777	0	0	0	0	0	0	0	0	0
0.25	-99.3903	654.557	-25.1842	0.223641	0	-0.14763	-0.38694	2.54828	-0.09804549999999999	0	0	0	0	0	0	0	0	0
0.26	-91.75149999999999	634.553	-25.0733	0.226677	0	-0.146026	-0.362363	2.5061	-0.0990244	0	0	0	0	0	0	0	0	0
0.27	-83.9966	612.735	-24.7616	0.229738	0	-0.144328	-0.330541	2.41122	-0.0974409	0	0	0	0	0	0	0	0	0
0.28	-76.2804	590.043	-24.2845	0.232799	0	-0.142555	-0.292285	2.26088	-0.0930513	0	0	0	0	0	0	0	0	0
0.29	-68.7209	567.33	-23.6806	0.235831	0	-0.140726	-0.248754	2.05361	-0.0857184	0	0	0	0	0	0	0	0	0
0.3	-61.4012	545.3390000000001	-22.9935	0.2388	0	-0.138872	-0.201514	1.78977	-0.07546310000000001	0	0	0	0	0	0	0	0	0
0.31	-54.3737	524.698	-22.27	0.241677	0	-0.137022	-0.152519	1.47179	-0.0624679	0	0	0	0	0	0	0	0	0
0.32	-47.6668	505.931	-21.5575	0.244432	0	-0.135216	-0.10401	1.10395	-0.0470389	0	0	0	0	0	0	0	0	0
0.33	-41.2877	489.477	-20.8989	0.247045	0	-0.133492	-0.0583832	0.692148	-0.0295523	0	0	0	0	0	0	0	0	0
0.34	-35.2259	475.702	-20.3287	0.249497	0	-0.131893	-0.0180359	0.243563	-0.0104084	0	0	0	0	0	0	0	0	0
0.35	-29.4575	464.91	-19.8717	0.251789	0	-0.130456	0.0148217	-0.233923	0.00999857	0	0	0	0	0	0	0	0	0
0.36	-23.9488	457.34	-19.5427	0.253923	0	-0.129215	0.0383423	-0.732206	0.031288	0	0	0	0	0	0	0	0	0
0.37	-18.659	453.153	-19.3464	0.255918	0	-0.128194	0.0511908	-1.24322	0.0530767	0	0	0	0	0	0	0	0	0
0.38	-13.5409	452.426	-19.2814	0.257801	0	-0.127402	0.0526426	-1.75889	0.07496	0	0	0	0	0	0	0	0	0
0.39	-8.5418	455.149	-19.3444	0.259604	0	-0.126831	0.0426121	-2.27059	0.0965029	0	0	0	0	0	0	0	0	0
0.4	-3.60342	461.222	-19.5334	0.26136	0	-0.126457	0.0216299	-2.76854	0.117251	0	0	0	0	0	0	0	0	0
0.41	1.33628	470.456	-19.8499	0.263103	0	-0.126249	-0.00920693	-3.24142	0.136765	0	0	0	0	0	0	0	0	0
0.42	6.34004	482.577	-20.3002	0.264862	0	-0.126162	-0.0483021	-3.67655	0.154659	0	0	0	0	0	0	0	0	0
0.43	11.468	497.228	-20.8929	0.266658	0	-0.126155	-0.0936535	-4.06061	0.170622	0	0	0	0	0	0	0	0	0
0.44	16.7725	513.9829999999999	-21.6331	0.268506	0	-0.126192	-0.142957	-4.38085	0.184387	0	0	0	0	0	0	0	0	0
0.45	22.2917	532.355	-22.5163	0.270415	0	-0.126244	-0.193728	-4.62647	0.195679	0	0	0	0	0	0	0	0	0
0.46	28.0463	551.807	-23.5222	0.272393	0	-0.126294	-0.243441	-4.78967	0.204172	0	0	0	0	0	0	0	0	0
0.47	34.0371	571.756	-24.6117	0.274437	0	-0.126333	-0.289702	-4.86642	0.209479	0	0	0	0	0	0	0	0	0
0.48	40.2433	591.564	-25.7274	0.27655	0	-0.126361	-0.330389	-4.85661	0.211216	0	0	0	0	0	0	0	0	0
0.49	46.6214	610.543	-26.7978	0.278729	0	-0.126383	-0.363789	-4.7641	0.209105	0	0	0	0	0	0	0	0	0
0.5	53.1041	627.947	-27.7444	0.280977	0	-0.126403	-0.388694	-4.59624	0.203074	0	0	0	0	0	0	0	0	0
0.51	59.6037	642.997	-28.4866	0.283295	0	-0.126429	-0.404477	-4.36344	0.193313	0	0	0	0	0	0	0	0	0
0.52	66.0158	654.899	-28.9484	0.285686	0	-0.126466	-0.411122	-4.07847	0.18028	0	0	0	0	0	0	0	0	0
0.53	72.2223	662.8869999999999	-29.0633	0.288151	0	-0.126517	-0.40919	-3.75572	0.164664	0	0	0	0	0	0	0	0	0
0.54	78.09220000000001	666.254	-28.7794	0.290688	0	-0.126588	-0.399741	-3.41045	0.147317	0	0	0	0	0	0	0	0	0
0.55	83.4821	664.39	-28.0647	0.293295	0	-0.12668	-0.384222	-3.05782	0.129166	1.07686	33.4994	-6.06795	0.736611	0	-0.174749	0.00590256	0.183619	-0.03326
0.5600000000000001	88.238	656.8200000000001	-26.9112	0.295966	0	-0.126798	-0.364325	-2.71194	0.111113	-1.72104	56.4429	-6.78848	0.768061	0	-0.189258	-0.00783062	0.256811	-0.0308871
0.57	92.1957	643.227	-25.337	0.298698	0	-0.12694	-0.341836	-2.3849	0.0939424	-5.71144	84.6677	-7.47756	0.784999	0	-0.196317	-0.01891	0.280326	-0.0247574
0.58	95.1833	623.474	-23.386	0.301488	0	-0.127111	-0.318468	-2.08604	0.0782458	-11.1024	118.297	-8.07002	0.796024	0	-0.200325	-0.0257133	0.273978	-0.0186903
0.59	97.026	597.623	-21.1248	0.304336	0	-0.127308	-0.295725	-1.82149	0.064386	-18.0814	157.108	-8.48115	0.804135	0	-0.202825	-0.0278264	0.241782	-0.0130521
0.6	97.55459999999999	565.937	-18.638	0.30725	0	-0.127532	-0.274775	-1.59404	0.0524963	-26.7231	200.524	-8.61238	0.810655	0	-0.204492	-0.0244589	0.183534	-0.00788267
0.61	96.62090000000001	528.9	-16.0232	0.310246	0	-0.127783	-0.25635	-1.40325	0.0425118	-36.8505	247.759	-8.358510000000001	0.816227	0	-0.20567	-0.0147582	0.09922499999999999	-0.0033475
0.62	94.11709999999999	487.226	-13.3838	0.313346	0	-0.128061	-0.240662	-1.24586	0.0342231	-48.062	297.843	-7.61954	0.821168	0	-0.206558	0.00162877	-0.0100936	0.000258217
0.63	89.9986	441.852	-10.8239	0.316585	0	-0.128368	-0.227372	-1.11629	0.0273456	-59.8308	349.534	-6.32923	0.825646	0	-0.207264	0.0244479	-0.142825	0.00258623
